<svg width="76" height="97" viewBox="0 0 76 97" fill="none" xmlns="http://www.w3.org/2000/svg">
<path d="M67.0298 28.6702L67.1491 29H67.4999C69.3919 29 70.9424 30.1323 72.1232 32.0156C73.3058 33.9018 74.0711 36.4794 74.3782 39.1815C74.6849 41.8807 74.5292 44.6591 73.9083 46.9307C73.2816 49.2236 72.2142 50.8889 70.7905 51.546L70.5 51.6801V52V70V70.0432L70.5074 70.0857C72.4616 81.3222 66.0003 90.7349 56.3174 94.5346C46.6607 98.3239 33.7718 96.5251 22.9111 85.2064L14.9443 69.7707L14.7179 69.332L14.2764 69.5528C13.6772 69.8524 12.9793 69.863 12.1818 69.5838C11.3767 69.3018 10.4976 68.7318 9.59221 67.9173C7.78281 66.2896 5.95703 63.7661 4.50673 60.9581C3.05681 58.1508 2.00387 55.1011 1.70784 52.437C1.40944 49.7514 1.8905 47.5937 3.32289 46.3817L3.59926 46.1478L3.46334 45.8123C-4.41251 26.3687 6.76522 9.13639 22.303 3.21725C30.065 0.260293 38.8904 0.141639 46.9409 3.98253C54.9875 7.82157 62.3153 15.6434 67.0298 28.6702Z" stroke="black"/>
</svg>
